<?xml version="1.0" encoding="utf-8"?>
<!-- Generator: Adobe Illustrator 16.0.0, SVG Export Plug-In . SVG Version: 6.00 Build 0)  -->
<!DOCTYPE svg PUBLIC "-//W3C//DTD SVG 1.1//EN" "http://www.w3.org/Graphics/SVG/1.1/DTD/svg11.dtd">
<svg version="1.1" id="Layer_1" xmlns="http://www.w3.org/2000/svg" xmlns:xlink="http://www.w3.org/1999/xlink" x="0px" y="0px"
	 width="512px" height="512px" viewBox="0 0 512 512" enable-background="new 0 0 512 512" xml:space="preserve">
<g>
	<path fill="#FEFEFE" d="M422.953,176.019c0.549-0.48,1.09-0.975,1.612-1.498l21.771-21.772c12.883-12.883,12.883-33.771,0-46.654
		l-40.434-40.434c-12.884-12.883-33.771-12.883-46.653,0l-21.772,21.772c-0.522,0.523-1.018,1.064-1.497,1.613L422.953,176.019z"/>
	<polygon fill="#FEFEFE" points="114.317,397.684 157.317,440.684 106.658,448.342 56,456 63.658,405.341 71.316,354.684 	"/>
	<polygon fill="#FFFFFF" points="347.112,125.535 116.952,355.693 104.511,343.253 334.671,113.094 322.229,100.653 79.629,343.253 
		166.717,430.341 409.317,187.74 	"/>
</g>
</svg>
