<?xml version="1.0" encoding="utf-8"?>
<!-- Generator: Adobe Illustrator 16.0.0, SVG Export Plug-In . SVG Version: 6.00 Build 0)  -->
<!DOCTYPE svg PUBLIC "-//W3C//DTD SVG 1.1//EN" "http://www.w3.org/Graphics/SVG/1.1/DTD/svg11.dtd">
<svg version="1.1" id="Layer_1" xmlns="http://www.w3.org/2000/svg" xmlns:xlink="http://www.w3.org/1999/xlink" x="0px" y="0px"
	 width="967.5px" height="862.5px" viewBox="-355.5 0 967.5 862.5" enable-background="new -355.5 0 967.5 862.5"
	 xml:space="preserve">
<g>
	<g transform="translate(0.000000,511.000000) scale(0.100000,-0.100000)">
		<path fill="#FFFFFF" d="M-1283.223,4348.179c-615.068-99.531-1070.991-572.031-1150.605-1192.046
			c-23.188-179.067-4.937-315.029,64.634-508.999c76.27-217.163,261.953-557.056,467.558-862.119
			c208.95-310.005,775.967-1027.876,812.388-1027.876c19.922,0,363.086,414.477,558.726,676.43
			c467.485,626.704,722.817,1095.859,784.184,1448.979c26.533,144.243,3.34,353.12-58.022,548.765
			c-102.798,323.315-368.022,631.646-683.047,789.199C-701.304,4326.587-1054.424,4384.6-1283.223,4348.179z M-865.395,3857.432
			c374.722-97.788,654.844-454.253,654.844-832.314c0-243.701-247.046-706.235-711.26-1326.323
			c-82.886-112.769-157.476-203.94-165.762-203.94c-21.519,0-313.354,389.619-464.214,618.418
			c-270.239,412.812-401.255,693.013-412.812,882.041c-21.587,379.658,261.953,757.642,644.883,860.444
			C-1200.337,3887.241-986.44,3888.906-865.395,3857.432z"/>
		<path fill="#FFFFFF" d="M-1230.146,3456.177c-149.185-54.668-255.332-159.146-303.394-301.719
			c-74.585-218.833,49.731-480.786,273.589-576.973c82.876-34.829,258.604-34.829,341.558,0
			c293.433,125.991,387.954,500.713,187.363,736.123C-855.43,3456.177-1061.035,3515.869-1230.146,3456.177z"/>
		<path fill="#FFFFFF" d="M3518.125,1395.4c-250.322-23.193-523.906-135.957-722.9-298.447
			c-384.604-311.689-575.303-865.459-452.573-1308.095c82.881-298.457,412.812-868.711,789.126-1362.812
			c195.635-257.031,503.965-628.379,522.207-628.379c19.922,0,316.699,363.086,543.847,663.144
			C4706.816-866.123,4972.05-357.119,5005.195-0.654c21.602,227.109-69.668,563.672-212.227,782.5
			c-94.531,147.598-296.777,341.572-442.695,427.715c-139.219,82.881-366.426,162.495-499.023,177.397
			C3673.906,1405.361,3642.441,1407.036,3518.125,1395.4z M3942.558,883.135c427.715-152.539,686.387-625.02,553.789-1018.008
			c-81.211-238.75-341.562-676.426-656.504-1097.519c-97.793-132.617-182.344-240.43-187.363-240.43
			c-14.902,1.66-305.078,397.891-444.287,606.777c-283.545,424.453-434.409,747.676-434.409,931.758
			c0,227.148,87.905,426.133,263.618,600.176c130.938,129.336,238.76,193.984,402.852,240.43
			C3562.832,941.143,3811.562,929.522,3942.558,883.135z"/>
		<path fill="#FFFFFF" d="M3564.492,515.03c-137.617-33.145-270.225-135.957-336.533-263.613
			c-48.057-91.172-43.115-300.059,9.961-402.852c169.111-334.883,631.65-341.562,825.615-14.902
			c39.766,67.969,44.805,94.512,44.805,218.828c0,164.18-28.223,235.41-129.355,336.543
			C3871.25,496.768,3702.129,548.194,3564.492,515.03z"/>
		<path fill="#FFFFFF" d="M-1216.914,508.408c-77.939-33.145-116.035-119.375-91.167-205.605
			c28.208-91.172,81.206-119.355,242.026-129.336c175.723-11.543,266.89,13.301,308.413,82.891
			c18.247,29.883,33.145,69.648,33.145,91.172c0,59.668-44.78,132.598-99.453,160.801
			C-886.982,541.573-1142.246,541.573-1216.914,508.408z"/>
		<path fill="#FFFFFF" d="M-338.218,458.682c-54.673-54.727-58.018-64.629-49.731-135.957
			c11.636-102.793,63.032-149.18,180.747-160.801c432.725-43.125,475.762-44.805,513.935-24.883
			c64.634,31.484,96.191,84.57,96.191,160.82c0,58.008-9.961,81.211-46.387,119.395c-49.727,49.727-72.92,54.668-376.313,82.871
			C-271.919,523.33-273.511,523.33-338.218,458.682z"/>
		<path fill="#FFFFFF" d="M765.928,236.514c-38.096-38.184-48.062-63.047-48.062-117.715c0-74.609,24.868-106.074,179.072-228.789
			c51.401-41.445,74.595-72.93,87.9-129.336c46.387-184.023,268.569-215.527,339.888-48.086
			c18.252,46.406,18.252,68.008-3.35,150.879c-29.8,117.715-66.299,175.703-159.141,265.293
			C988.105,296.182,860.439,331.026,765.928,236.514z"/>
		<path fill="#FFFFFF" d="M666.465-484.638c-3.267-5.02-114.355-38.184-247.046-74.609
			c-271.904-74.59-315.024-104.453-315.024-213.887c0-77.93,38.096-132.617,111.094-162.48
			c53.071-23.203,72.92-19.922,283.472,34.824c283.462,74.59,334.868,99.453,373.037,177.383
			c39.766,81.23,14.907,167.441-61.357,213.906C764.326-481.377,684.722-468.076,666.465-484.638z"/>
		<path fill="#FFFFFF" d="M-656.514-809.619c-129.341-33.145-257.012-76.27-281.875-94.512
			c-147.515-109.434-26.533-348.184,154.204-301.719c271.914,66.289,472.5,124.316,502.383,144.238
			c54.673,34.824,81.211,135.938,54.673,203.945c-24.863,56.328-104.478,114.336-157.476,112.734
			C-402.852-744.931-525.503-774.795-656.514-809.619z"/>
		<path fill="#FFFFFF" d="M-1548.437-1229.052c-102.808-92.832-157.48-210.547-167.441-354.805
			c-14.897-225.43,58.022-353.125,198.921-353.125c51.396,0,76.265,11.66,116.03,49.746c49.731,51.406,49.731,53.086,39.766,179.062
			c-9.961,132.617-9.961,132.617,67.979,253.672c79.614,117.715,18.257,257.012-121.05,275.176
			C-1475.522-1171.025-1490.42-1175.966-1548.437-1229.052z"/>
		<path fill="#FFFFFF" d="M-1099.209-2026.552c-91.167-91.152-67.974-225.43,48.057-281.855
			c77.935-36.426,452.578-142.578,502.305-142.578c54.673,0,134.287,41.445,155.884,81.211
			c8.286,18.262,16.572,63.047,16.572,99.453c0,111.094-43.115,142.578-281.875,207.207
			c-114.434,31.484-228.799,64.648-253.657,74.59C-993.061-1956.865-1039.516-1966.845-1099.209-2026.552z"/>
		<path fill="#FFFFFF" d="M61.362-2242.021c-149.189-66.309-139.233-273.594,14.897-323.32
			c28.208-8.301,159.15-29.824,288.491-44.785c195.645-23.203,243.701-24.883,286.816-6.602
			c127.666,53.066,130.938,261.934,4.941,311.66c-24.863,9.961-139.302,29.824-253.662,44.785
			c-114.365,13.223-225.454,28.223-248.721,33.145C131.011-2223.779,89.57-2230.478,61.362-2242.021z"/>
		<path fill="#FFFFFF" d="M1178.813-2359.716c-49.727-28.223-96.187-102.832-96.187-157.5c0-59.688,49.727-134.258,106.069-157.461
			c31.479-13.223,159.146-28.223,318.296-34.824l263.623-11.641l53.071,44.785c64.634,54.746,81.206,121.035,48.057,197.305
			c-34.819,86.25-87.891,106.152-333.188,117.734c-117.72,6.602-237.1,14.883-265.303,19.844
			C1246.792-2338.232,1203.672-2346.494,1178.813-2359.716z"/>
		<path fill="#FFFFFF" d="M2319.453-2426.044c-67.974-36.504-91.172-72.93-92.832-145.918c0-152.539,48.047-174.043,412.798-180.742
			l285.151-4.941l49.727,54.746c91.172,101.133,49.727,248.73-81.211,285.156C2793.633-2391.298,2377.475-2396.22,2319.453-2426.044
			z"/>
		<path fill="#FFFFFF" d="M3433.574-2465.888c-46.387-41.426-54.746-59.668-54.746-124.316c0-59.707,9.961-84.551,46.367-121.055
			c43.125-43.105,54.766-46.387,215.566-51.406c195.664-6.602,247.051,8.301,293.437,82.891s34.824,155.781-33.145,217.168
			c-48.047,43.105-56.347,44.785-232.07,44.785C3491.582-2417.744,3486.64-2419.423,3433.574-2465.888z"/>
	</g>
</g>
</svg>
